{
  "accessors": [
    {
      "bufferView": 2,
      "componentType": 5126,
      "count": 323,
      "max": [
        19.097660064697266,
        33.9530029296875,
        17.89131736755371
      ],
      "min": [
        -10.84266471862793,
        0.24600982666015625,
        -17.89131736755371
      ],
      "type": "VEC3"
    },
    {
      "bufferView": 2,
      "byteOffset": 3876,
      "componentType": 5126,
      "count": 323,
      "type": "VEC3"
    },
    {
      "bufferView": 3,
      "componentType": 5126,
      "count": 323,
      "type": "VEC4"
    },
    {
      "bufferView": 1,
      "componentType": 5126,
      "count": 323,
      "type": "VEC2"
    },
    {
      "bufferView": 1,
      "byteOffset": 2584,
      "componentType": 5126,
      "count": 323,
      "type": "VEC2"
    },
    {
      "bufferView": 1,
      "byteOffset": 5168,
      "componentType": 5126,
      "count": 323,
      "type": "VEC2"
    },
    {
      "bufferView": 1,
      "byteOffset": 7752,
      "componentType": 5126,
      "count": 323,
      "type": "VEC2"
    },
    {
      "bufferView": 1,
      "byteOffset": 10336,
      "componentType": 5126,
      "count": 323,
      "type": "VEC2"
    },
    {
      "bufferView": 1,
      "byteOffset": 12920,
      "componentType": 5126,
      "count": 323,
      "type": "VEC2"
    },
    {
      "bufferView": 1,
      "byteOffset": 15504,
      "componentType": 5126,
      "count": 323,
      "type": "VEC2"
    },
    {
      "bufferView": 1,
      "byteOffset": 18088,
      "componentType": 5126,
      "count": 323,
      "type": "VEC2"
    },
    {
      "bufferView": 1,
      "byteOffset": 20672,
      "componentType": 5126,
      "count": 323,
      "type": "VEC2"
    },
    {
      "bufferView": 1,
      "byteOffset": 23256,
      "componentType": 5126,
      "count": 323,
      "type": "VEC2"
    },
    {
      "bufferView": 0,
      "componentType": 5125,
      "count": 1278,
      "type": "SCALAR"
    },
    {
      "bufferView": 2,
      "byteOffset": 7752,
      "componentType": 5126,
      "count": 637,
      "max": [
        40.73479080200195,
        5.256573677062988,
        0.20562541484832764
      ],
      "min": [
        -19.1580810546875,
        0.1753368377685547,
        -31.31009292602539
      ],
      "type": "VEC3"
    },
    {
      "bufferView": 2,
      "byteOffset": 15396,
      "componentType": 5126,
      "count": 637,
      "type": "VEC3"
    },
    {
      "bufferView": 3,
      "byteOffset": 5168,
      "componentType": 5126,
      "count": 637,
      "type": "VEC4"
    },
    {
      "bufferView": 1,
      "byteOffset": 25840,
      "componentType": 5126,
      "count": 637,
      "type": "VEC2"
    },
    {
      "bufferView": 1,
      "byteOffset": 30936,
      "componentType": 5126,
      "count": 637,
      "type": "VEC2"
    },
    {
      "bufferView": 1,
      "byteOffset": 36032,
      "componentType": 5126,
      "count": 637,
      "type": "VEC2"
    },
    {
      "bufferView": 1,
      "byteOffset": 41128,
      "componentType": 5126,
      "count": 637,
      "type": "VEC2"
    },
    {
      "bufferView": 1,
      "byteOffset": 46224,
      "componentType": 5126,
      "count": 637,
      "type": "VEC2"
    },
    {
      "bufferView": 1,
      "byteOffset": 51320,
      "componentType": 5126,
      "count": 637,
      "type": "VEC2"
    },
    {
      "bufferView": 1,
      "byteOffset": 56416,
      "componentType": 5126,
      "count": 637,
      "type": "VEC2"
    },
    {
      "bufferView": 1,
      "byteOffset": 61512,
      "componentType": 5126,
      "count": 637,
      "type": "VEC2"
    },
    {
      "bufferView": 1,
      "byteOffset": 66608,
      "componentType": 5126,
      "count": 637,
      "type": "VEC2"
    },
    {
      "bufferView": 1,
      "byteOffset": 71704,
      "componentType": 5126,
      "count": 637,
      "type": "VEC2"
    },
    {
      "bufferView": 0,
      "byteOffset": 5112,
      "componentType": 5125,
      "count": 3288,
      "type": "SCALAR"
    },
    {
      "bufferView": 2,
      "byteOffset": 23040,
      "componentType": 5126,
      "count": 2225,
      "max": [
        43.842994689941406,
        5.312849998474121,
        28.542692184448242
      ],
      "min": [
        -24.10135841369629,
        0.246002197265625,
        -15.295806884765625
      ],
      "type": "VEC3"
    },
    {
      "bufferView": 2,
      "byteOffset": 49740,
      "componentType": 5126,
      "count": 2225,
      "type": "VEC3"
    },
    {
      "bufferView": 3,
      "byteOffset": 15360,
      "componentType": 5126,
      "count": 2225,
      "type": "VEC4"
    },
    {
      "bufferView": 1,
      "byteOffset": 76800,
      "componentType": 5126,
      "count": 2225,
      "type": "VEC2"
    },
    {
      "bufferView": 1,
      "byteOffset": 94600,
      "componentType": 5126,
      "count": 2225,
      "type": "VEC2"
    },
    {
      "bufferView": 1,
      "byteOffset": 112400,
      "componentType": 5126,
      "count": 2225,
      "type": "VEC2"
    },
    {
      "bufferView": 1,
      "byteOffset": 130200,
      "componentType": 5126,
      "count": 2225,
      "type": "VEC2"
    },
    {
      "bufferView": 1,
      "byteOffset": 148000,
      "componentType": 5126,
      "count": 2225,
      "type": "VEC2"
    },
    {
      "bufferView": 1,
      "byteOffset": 165800,
      "componentType": 5126,
      "count": 2225,
      "type": "VEC2"
    },
    {
      "bufferView": 1,
      "byteOffset": 183600,
      "componentType": 5126,
      "count": 2225,
      "type": "VEC2"
    },
    {
      "bufferView": 1,
      "byteOffset": 201400,
      "componentType": 5126,
      "count": 2225,
      "type": "VEC2"
    },
    {
      "bufferView": 1,
      "byteOffset": 219200,
      "componentType": 5126,
      "count": 2225,
      "type": "VEC2"
    },
    {
      "bufferView": 1,
      "byteOffset": 237000,
      "componentType": 5126,
      "count": 2225,
      "type": "VEC2"
    },
    {
      "bufferView": 0,
      "byteOffset": 18264,
      "componentType": 5125,
      "count": 12048,
      "type": "SCALAR"
    }
  ],
  "asset": {
    "generator": "fab-model-conversion",
    "version": "2.0"
  },
  "bufferViews": [
    {
      "buffer": 0,
      "byteLength": 66456,
      "target": 34963
    },
    {
      "buffer": 0,
      "byteLength": 254800,
      "byteOffset": 66456,
      "byteStride": 8,
      "target": 34962
    },
    {
      "buffer": 0,
      "byteLength": 76440,
      "byteOffset": 321256,
      "byteStride": 12,
      "target": 34962
    },
    {
      "buffer": 0,
      "byteLength": 50960,
      "byteOffset": 397696,
      "byteStride": 16,
      "target": 34962
    }
  ],
  "buffers": [
    {
      "byteLength": 448656,
      "uri": "scene.bin"
    }
  ],
  "materials": [
    {
      "doubleSided": true,
      "name": "Computer",
      "pbrMetallicRoughness": {
        "baseColorFactor": [
          0.8,
          0.8,
          0.8,
          1.0
        ],
        "metallicFactor": 0.0,
        "roughnessFactor": 0.9577051494623774
      }
    }
  ],
  "meshes": [
    {
      "name": "Base_Computer_0",
      "primitives": [
        {
          "attributes": {
            "COLOR_0": 2,
            "NORMAL": 1,
            "POSITION": 0,
            "TEXCOORD_0": 3,
            "TEXCOORD_1": 4,
            "TEXCOORD_2": 5,
            "TEXCOORD_3": 6,
            "TEXCOORD_4": 7,
            "TEXCOORD_5": 8,
            "TEXCOORD_6": 9,
            "TEXCOORD_7": 10,
            "TEXCOORD_8": 11,
            "TEXCOORD_9": 12
          },
          "indices": 13,
          "material": 0,
          "mode": 4
        }
      ]
    },
    {
      "name": "Mouse_Computer_0",
      "primitives": [
        {
          "attributes": {
            "COLOR_0": 16,
            "NORMAL": 15,
            "POSITION": 14,
            "TEXCOORD_0": 17,
            "TEXCOORD_1": 18,
            "TEXCOORD_2": 19,
            "TEXCOORD_3": 20,
            "TEXCOORD_4": 21,
            "TEXCOORD_5": 22,
            "TEXCOORD_6": 23,
            "TEXCOORD_7": 24,
            "TEXCOORD_8": 25,
            "TEXCOORD_9": 26
          },
          "indices": 27,
          "material": 0,
          "mode": 4
        }
      ]
    },
    {
      "name": "Keyboard_Computer_0",
      "primitives": [
        {
          "attributes": {
            "COLOR_0": 30,
            "NORMAL": 29,
            "POSITION": 28,
            "TEXCOORD_0": 31,
            "TEXCOORD_1": 32,
            "TEXCOORD_2": 33,
            "TEXCOORD_3": 34,
            "TEXCOORD_4": 35,
            "TEXCOORD_5": 36,
            "TEXCOORD_6": 37,
            "TEXCOORD_7": 38,
            "TEXCOORD_8": 39,
            "TEXCOORD_9": 40
          },
          "indices": 41,
          "material": 0,
          "mode": 4
        }
      ]
    }
  ],
  "nodes": [
    {
      "children": [
        1
      ],
      "matrix": [
        1.0,
        0.0,
        0.0,
        0.0,
        0.0,
        2.220446049250313e-16,
        -1.0,
        0.0,
        0.0,
        1.0,
        2.220446049250313e-16,
        0.0,
        0.0,
        0.0,
        0.0,
        1.0
      ],
      "name": "Sketchfab_model"
    },
    {
      "children": [
        2
      ],
      "matrix": [
        0.009999999776482582,
        0.0,
        0.0,
        0.0,
        0.0,
        0.0,
        0.009999999776482582,
        0.0,
        0.0,
        -0.009999999776482582,
        0.0,
        0.0,
        0.0,
        0.0,
        0.0,
        1.0
      ],
      "name": "retrocomputer.fbx"
    },
    {
      "children": [
        3
      ],
      "name": "RootNode"
    },
    {
      "children": [
        4,
        6,
        8
      ],
      "name": "Computer1"
    },
    {
      "children": [
        5
      ],
      "name": "Base"
    },
    {
      "mesh": 0,
      "name": "Base_Computer_0"
    },
    {
      "children": [
        7
      ],
      "name": "Mouse"
    },
    {
      "mesh": 1,
      "name": "Mouse_Computer_0"
    },
    {
      "children": [
        9
      ],
      "name": "Keyboard"
    },
    {
      "mesh": 2,
      "name": "Keyboard_Computer_0"
    }
  ],
  "scene": 0,
  "scenes": [
    {
      "name": "Sketchfab_Scene",
      "nodes": [
        0
      ]
    }
  ]
}
